<svg xmlns="http://www.w3.org/2000/svg" width="700" height="360" viewBox="0 0 700 360">
<rect width="700" height="360" rx="10" fill="#1e1e1e"/>
<text x="24" y="32" fill="#858585" font-family="ui-monospace, SFMono-Regular, Menlo, Monaco, Consolas, 'Liberation Mono', monospace" font-size="12" font-weight="500" >Quick Fix  ·  ⌘.  /  Ctrl+.</text>
<text x="24" y="68" fill="#d4d4d4" font-family="ui-monospace, SFMono-Regular, Menlo, Monaco, Consolas, 'Liberation Mono', monospace" font-size="15" font-weight="500" >def leftover_helper():</text>
<path d="M24,74 q3,2.5 6,0 t6,0 t6,0 t6,0 t6,0 t6,0 t6,0 t6,0 t6,0 t6,0 t6,0 t6,0 t6,0 t6,0 t6,0" stroke="#f48771" fill="none" stroke-width="1.4"/>
<text x="24" y="100" fill="#d4d4d4" font-family="ui-monospace, SFMono-Regular, Menlo, Monaco, Consolas, 'Liberation Mono', monospace" font-size="15" font-weight="500" >    pass</text>
<text x="24" y="138" fill="#858585" font-family="ui-monospace, SFMono-Regular, Menlo, Monaco, Consolas, 'Liberation Mono', monospace" font-size="13" font-weight="500" >💡  PyDead actions</text>
<rect x="40" y="152" width="620" height="176" rx="6" fill="#252526" stroke="#454545"/>
<rect x="44" y="160" width="612" height="34" rx="4" fill="#0e639c"/>
<text x="58" y="182" fill="#ffffff" font-family="ui-monospace, SFMono-Regular, Menlo, Monaco, Consolas, 'Liberation Mono', monospace" font-size="13" font-weight="600" >PyDead: keep 'leftover_helper' (mark as used)</text>
<text x="58" y="220" fill="#cccccc" font-family="ui-monospace, SFMono-Regular, Menlo, Monaco, Consolas, 'Liberation Mono', monospace" font-size="13" font-weight="500" >PyDead: keep (DC001 only)</text>
<text x="58" y="252" fill="#cccccc" font-family="ui-monospace, SFMono-Regular, Menlo, Monaco, Consolas, 'Liberation Mono', monospace" font-size="13" font-weight="500" >PyDead: report false positive for 'leftover_helper'…</text>
<text x="58" y="284" fill="#cccccc" font-family="ui-monospace, SFMono-Regular, Menlo, Monaco, Consolas, 'Liberation Mono', monospace" font-size="13" font-weight="500" >PyDead: remove unused function 'leftover_helper'</text>
<text x="58" y="316" fill="#89d185" font-family="ui-monospace, SFMono-Regular, Menlo, Monaco, Consolas, 'Liberation Mono', monospace" font-size="12" font-weight="500" >→ inserts  # pydead: keep   ·   opens GitHub issue prefilled</text>
</svg>
